<svg width="762" height="219" viewBox="0 0 762 219" fill="none" xmlns="http://www.w3.org/2000/svg">
<path d="M97.6233 119.148C54.4413 130.475 21.2289 123.868 10.0204 119.148V132.422C58.7057 139.167 86.9775 124.624 97.4457 119.24L97.6233 119.148Z" fill="#CC312B"/>
<path d="M187 131.5C140.6 207.1 78.6667 200.667 53.5 188C61.5 200.8 84.8333 205 95.5 205.5C174 197 187 142 187 131.5Z" fill="#2764F3"/>
<path d="M179.869 74.9097C159.568 152.478 82.9584 181.396 47.1914 186.159C50.1864 189.647 63.1113 198.379 90.8512 205.411C185.762 152.583 179.499 99.0935 179.869 74.9097Z" fill="#1D1C44"/>
<path d="M3.2599 142.041C4.91652 143.033 6.54303 144.055 8.22977 145.003C16.543 149.633 25.5039 152.235 34.9014 153.437C41.7388 154.309 48.5761 154.264 55.3984 153.407C62.9586 152.46 70.2629 150.49 77.3261 147.679C83.3803 145.258 89.2086 142.371 94.6454 138.823C98.4406 136.342 102.115 133.651 105.639 130.809C113.034 124.855 119.48 117.969 125.293 110.466C131.483 102.482 136.709 93.9269 140.895 84.7552C143.109 79.9138 145.067 74.937 147.115 70.0204C147.281 69.6295 147.356 69.2235 147.477 68.8176C147.416 68.7724 147.356 68.7273 147.296 68.6973C146.889 69.1483 146.483 69.5994 146.061 70.0354C141.663 74.5762 136.754 78.4854 131.483 81.9736C124.103 86.8602 116.166 90.6341 107.808 93.5359C106.287 94.0622 104.766 94.5884 103.23 95.0245C102.522 95.2199 102.356 95.5507 102.356 96.2273C102.371 100.467 102.311 104.692 102.371 108.932C102.386 110.03 102.055 110.586 101.061 111.022C98.5158 112.135 96.0008 113.353 93.4707 114.51C93.3653 114.556 93.2448 114.571 93.049 114.616C93.049 113.759 93.049 112.962 93.049 112.165C93.049 107.654 93.049 103.144 93.049 98.633C93.049 97.7309 93.0038 97.7008 92.1002 97.8962C83.7869 99.7757 75.3683 100.648 66.8592 100.798C61.4376 100.888 56.0159 100.723 50.6093 100.197C49.9617 100.137 49.299 100.091 48.6665 99.9561C48.0791 99.8358 47.8683 100.061 47.7478 100.603C46.9948 104.211 46.046 107.775 45.4888 111.413C44.8563 115.443 44.4346 119.517 44.1635 123.577C43.9526 126.719 44.1032 129.892 44.1032 133.034C44.1032 137.77 44.7358 142.431 45.6243 147.062C45.6846 147.378 45.7297 147.694 45.7749 148.01C44.7207 148.01 43.7267 148.055 42.7328 147.995C40.805 147.889 38.8773 147.709 36.9496 147.589C36.4677 147.559 36.1665 147.423 36.0912 146.882C35.5792 143.394 34.8713 139.921 34.5551 136.417C34.2237 132.688 34.0882 128.915 34.1786 125.171C34.2689 121.983 34.796 118.811 35.1424 115.623C35.7599 110.06 36.9798 104.602 38.3352 99.1893C38.6063 98.1067 38.5611 98.1218 37.4466 97.806C34.4496 96.9791 31.4225 96.2123 28.4707 95.265C25.0822 94.1674 21.7539 92.9045 18.3954 91.7016C18.1695 91.6264 17.9436 91.5362 17.6123 91.4159C17.04 93.2352 16.4527 94.9493 15.9707 96.7084C13.9376 104.091 12.9286 111.624 12.9587 119.292C12.9587 119.683 13.1394 120.074 13.2448 120.465C13.2599 120.525 13.29 120.6 13.29 120.66C12.8081 123.532 13.3653 126.389 13.4707 129.245C13.6364 133.771 14.5551 138.191 15.4737 142.612C15.4888 142.702 15.4737 142.807 15.4737 142.913C15.3834 142.913 15.293 142.943 15.2478 142.928C11.3171 140.928 7.40146 138.913 3.45568 136.928C2.04002 136.207 1.42255 135.154 1.19665 133.515C0.217731 126.539 -0.188895 119.562 0.0821889 112.526C0.398454 104.482 1.90448 96.6633 4.29905 88.9952C6.2117 82.9058 8.5611 76.9969 11.6786 71.4337C17.9436 60.2774 25.7599 50.3539 35.534 42.0393C43.1695 35.544 51.7087 30.462 60.9255 26.5377C74.3291 20.8242 88.3201 18.1328 102.898 18.5087C113.666 18.7944 124.148 20.7189 134.269 24.4327C136.663 25.3198 139.013 26.3272 141.392 27.2895C141.799 27.4549 142.175 27.6954 142.582 27.9059C140.398 31.8753 138.26 35.7695 136.061 39.7689C128.185 35.9349 119.766 33.6645 110.941 32.8075C111.121 32.8977 111.287 33.003 111.468 33.0932C118.712 36.5814 125.142 41.1672 130.564 47.1213C131.407 48.0535 131.392 48.0685 132.552 47.4671C133.064 47.1965 133.561 46.9258 134.194 46.6101C134.691 47.6626 135.203 48.7301 135.684 49.8277C136.332 51.2861 136.965 52.7747 137.612 54.2331C137.808 54.6691 137.823 54.9999 137.462 55.3758C135.504 57.4657 133.576 59.5707 131.633 61.6607C131.588 61.7058 131.513 61.7358 131.422 61.796C130.925 61.2697 130.459 60.6984 129.931 60.2172C129.721 60.0368 129.284 59.9015 129.058 59.9917C124.66 61.8862 120.082 63.2243 115.383 64.0964C111.362 64.8482 107.311 65.3594 103.26 65.9157C102.612 66.0059 102.432 66.2164 102.432 66.8479C102.462 72.5614 102.447 78.2749 102.447 83.9884C102.447 84.5597 102.627 84.6951 103.169 84.4996C111.453 81.6429 119.209 77.7637 126.392 72.7569C131.724 69.0281 136.453 64.6527 140.715 59.7511C144.811 55.03 148.154 49.8127 151.151 44.3548C151.663 43.4226 152.191 42.4904 152.808 41.4078C152.808 41.9341 152.808 42.2799 152.808 42.6407C152.703 51.0907 151.468 59.4053 149.736 67.6598C147.386 78.9064 143.832 89.762 138.983 100.197C136.498 105.519 133.681 110.661 130.534 115.608C123.953 125.922 116.166 135.199 106.633 142.943C97.4616 150.4 87.2508 155.933 75.9406 159.437C63.8472 163.165 51.5129 164.233 38.9376 162.85C34.7659 162.384 30.6545 161.632 26.6033 160.519C26.5581 160.504 26.5129 160.534 26.3171 160.594C26.9948 161.512 27.6123 162.414 28.3051 163.256C29.7659 165.045 31.2267 166.819 32.7478 168.563C33.049 168.909 33.546 169.21 33.9978 169.3C42.6424 171.239 51.3773 171.991 60.2327 171.194C66.2267 170.653 72.1153 169.601 77.8984 167.947C84.4044 166.082 90.6394 163.556 96.6333 160.384C102.206 157.437 107.371 153.919 112.251 149.979C118.907 144.597 124.766 138.432 130.022 131.666C135.91 124.088 141.031 116.014 145.338 107.429C148.019 102.091 150.248 96.5731 152.251 90.9498C155.579 81.6278 157.944 72.0652 159.389 62.2771C160.459 54.9548 160.835 47.5724 160.639 40.1749C160.624 39.6487 160.519 39.1224 160.564 38.5962C160.609 38.0248 160.353 37.9045 159.871 37.9196C157.507 37.9346 155.157 37.9346 152.793 37.9496C151.091 37.9496 149.389 37.9496 147.416 37.9496C154.811 25.1394 162.447 12.69 169.931 0C177.326 12.6749 184.66 25.2597 192.055 37.9346C187.19 37.9346 182.477 37.9346 177.657 37.9346C177.687 38.2654 177.687 38.5811 177.718 38.8969C178.486 47.2115 179.209 55.5111 179.434 63.8709C179.54 67.8553 179.736 71.8247 179.856 75.8091C179.871 76.1398 179.6 76.4857 179.495 76.8315C179.419 77.042 179.359 77.2525 179.329 77.463C178.666 85.086 177.447 92.6188 175.489 100.031C173.727 106.707 171.513 113.217 168.862 119.592C165.534 127.621 161.483 135.275 156.769 142.582C151.724 150.4 145.956 157.647 139.374 164.233C129.736 173.886 118.651 181.373 105.956 186.425C97.8381 189.658 89.4195 191.643 80.6695 192.199C74.3592 192.605 68.0791 192.455 61.8141 191.598C61.0309 191.492 60.2478 191.312 59.4195 191.267C60.3834 191.763 61.3321 192.274 62.296 192.755C68.787 196.018 75.5791 198.424 82.6574 200.017C89.3291 201.521 96.0761 202.153 102.913 202.032C112.341 201.867 121.528 200.228 130.428 197.086C136.046 195.101 141.392 192.5 146.422 189.297C151.422 186.11 156.136 182.546 160.428 178.457C164.766 174.337 168.606 169.781 172.025 164.864C176.678 158.159 180.353 150.942 183.275 143.334C184.615 139.83 185.745 136.252 186.814 132.643C186.166 133.741 185.579 134.884 184.871 135.951C182.19 139.981 179.615 144.085 176.739 147.949C171.437 155.091 165.519 161.692 158.998 167.736C151.934 174.292 144.269 180.035 135.925 184.907C131.347 187.583 126.603 189.929 121.663 191.838C116.739 193.733 111.678 195.221 106.483 196.168C103.847 196.65 101.182 196.995 98.5309 197.386C98.1996 197.431 97.8683 197.386 97.5369 197.386C97.5369 197.326 97.5219 197.266 97.5219 197.191C97.6725 197.131 97.808 197.04 97.9586 196.995C102.703 195.913 107.236 194.214 111.694 192.349C117.537 189.914 123.139 186.982 128.425 183.493C134.826 179.268 140.745 174.442 146.151 168.999C149.736 165.391 153.109 161.572 156.332 157.647C159.826 153.392 162.989 148.927 165.971 144.311C170.7 137.004 174.615 129.29 177.793 121.201C180.971 113.112 182.989 104.722 183.817 96.0619C184.947 84.2741 184.645 72.4862 183.456 60.7134C183.32 59.3753 183.034 58.0521 182.943 56.5786C183.004 56.6989 183.049 56.8342 183.109 56.9545C187.145 64.758 191.212 72.5764 194.163 80.876C199.284 95.265 201.468 110.06 200.142 125.306C198.998 138.402 195.504 150.851 189.389 162.534C186.799 167.496 183.892 172.262 180.504 176.727C173.41 186.095 164.992 194.033 155.082 200.363C148.441 204.618 141.362 207.971 133.907 210.527C121.935 214.617 109.615 216.271 96.9948 215.865C88.4556 215.594 80.0671 214.241 71.8592 211.82C64.5852 209.685 57.6424 206.768 51.0008 203.13C40.549 197.416 31.6033 189.914 23.8774 180.892C16.6334 172.442 10.9105 163.075 6.78399 152.746C5.39845 149.273 4.23881 145.694 2.98881 142.161C3.10929 142.116 3.1846 142.071 3.2599 142.041ZM93.1544 76.8616C93.1544 73.5237 93.1393 70.2008 93.1544 66.8629C93.1544 66.3217 93.0038 66.0961 92.4466 66.0811C91.4677 66.036 90.5038 65.9007 89.5249 65.8255C82.0098 65.2241 74.6755 63.7656 67.4767 61.5404C67.0249 61.405 66.7839 61.4351 66.4827 61.826C63.6062 65.4797 61.0912 69.3588 58.802 73.4034C55.8954 78.5305 53.3352 83.823 51.3171 89.3711C50.9406 90.4086 50.9707 90.4386 52.055 90.5439C61.3623 91.4159 70.6544 91.4159 79.9014 89.9876C84.058 89.341 88.1845 88.4539 92.3261 87.7022C93.064 87.5669 93.1544 87.191 93.1544 86.5595C93.1393 83.3268 93.1544 80.0942 93.1544 76.8616ZM41.2569 88.6193C41.4075 88.469 41.6183 88.3186 41.7388 88.1232C41.8743 87.8976 41.9346 87.612 42.0249 87.3563C44.8713 79.4026 48.6514 71.8998 53.1996 64.773C54.54 62.668 56.0309 60.6382 57.4767 58.5934C57.8683 58.0521 57.8834 57.7965 57.1755 57.4507C53.6514 55.7667 50.1575 54.0226 46.6635 52.2635C45.1575 51.5117 45.5942 51.4064 44.3141 52.5491C39.5249 56.8643 35.1123 61.5554 31.2267 66.7126C27.8834 71.133 24.9466 75.8241 22.3412 80.7107C21.5882 82.109 21.5882 82.124 23.1093 82.7705C27.6424 84.6951 32.3111 86.2287 37.0551 87.5067C38.4105 87.8826 39.7659 88.2284 41.2569 88.6193ZM122.07 52.4589C122.085 52.3537 122.1 52.2484 122.13 52.1281C116.498 46.6402 110.112 42.325 102.552 39.6787C102.507 39.9945 102.462 40.1749 102.462 40.3403C102.462 45.4524 102.477 50.5494 102.462 55.6615C102.462 56.293 102.748 56.3531 103.275 56.2629C107.371 55.5863 111.498 54.9999 115.579 54.2181C117.763 53.8121 119.901 53.0603 122.07 52.4589ZM93.1544 39.7088C88.1695 41.4078 74.5249 51.1659 73.9074 53.4362C74.0129 53.4813 74.1333 53.5415 74.2388 53.5715C80.1424 54.9247 86.0912 55.9021 92.1303 56.323C93.1243 56.3982 93.1394 56.3832 93.1394 55.3908C93.1394 50.9554 93.1394 46.5349 93.1394 42.0994C93.1544 41.3176 93.1544 40.5508 93.1544 39.7088ZM85.1725 33.1984C85.1273 33.1232 85.0972 33.0481 85.052 32.9729C74.3291 35.1831 64.1785 38.8067 54.7508 44.8209C55.4135 45.2118 55.8653 45.5125 56.3472 45.7531C58.6213 46.9108 60.9105 48.0535 63.1846 49.1962C64.5249 49.8578 64.555 49.8728 65.5791 48.7602C70.9255 42.9865 76.9345 38.0399 83.7267 34.0554C84.2237 33.7848 84.6906 33.4841 85.1725 33.1984Z" fill="#1D1C44"/>
<mask id="mask0_85_380" style="mask-type:alpha" maskUnits="userSpaceOnUse" x="0" y="0" width="201" height="216">
<path d="M3.2599 142.041C4.91652 143.033 6.54303 144.055 8.22977 145.003C16.543 149.633 25.5039 152.235 34.9014 153.437C41.7388 154.309 48.5761 154.264 55.3984 153.407C62.9586 152.46 70.2629 150.49 77.3261 147.679C83.3803 145.258 89.2086 142.371 94.6454 138.823C98.4406 136.342 102.115 133.651 105.639 130.809C113.034 124.855 119.48 117.969 125.293 110.466C131.483 102.482 136.709 93.9269 140.895 84.7552C143.109 79.9138 145.067 74.937 147.115 70.0204C147.281 69.6295 147.356 69.2235 147.477 68.8176C147.416 68.7724 147.356 68.7273 147.296 68.6973C146.889 69.1483 146.483 69.5994 146.061 70.0354C141.663 74.5762 136.754 78.4854 131.483 81.9736C124.103 86.8602 116.166 90.6341 107.808 93.5359C106.287 94.0622 104.766 94.5884 103.23 95.0245C102.522 95.2199 102.356 95.5507 102.356 96.2273C102.371 100.467 102.311 104.692 102.371 108.932C102.386 110.03 102.055 110.586 101.061 111.022C98.5158 112.135 96.0008 113.353 93.4707 114.51C93.3653 114.556 93.2448 114.571 93.049 114.616C93.049 113.759 93.049 112.962 93.049 112.165C93.049 107.654 93.049 103.144 93.049 98.633C93.049 97.7309 93.0038 97.7008 92.1002 97.8962C83.7869 99.7757 75.3683 100.648 66.8592 100.798C61.4376 100.888 56.0159 100.723 50.6093 100.197C49.9617 100.137 49.299 100.091 48.6665 99.9561C48.0791 99.8358 47.8683 100.061 47.7478 100.603C46.9948 104.211 46.046 107.775 45.4888 111.413C44.8563 115.443 44.4346 119.517 44.1635 123.577C43.9526 126.719 44.1032 129.892 44.1032 133.034C44.1032 137.77 44.7358 142.431 45.6243 147.062C45.6846 147.378 45.7297 147.694 45.7749 148.01C44.7207 148.01 43.7267 148.055 42.7328 147.995C40.805 147.889 38.8773 147.709 36.9496 147.589C36.4677 147.559 36.1665 147.423 36.0912 146.882C35.5792 143.394 34.8713 139.921 34.5551 136.417C34.2237 132.688 34.0882 128.915 34.1786 125.171C34.2689 121.983 34.796 118.811 35.1424 115.623C35.7599 110.06 36.9798 104.602 38.3352 99.1893C38.6063 98.1067 38.5611 98.1218 37.4466 97.806C34.4496 96.9791 31.4225 96.2123 28.4707 95.265C25.0822 94.1674 21.7539 92.9045 18.3954 91.7016C18.1695 91.6264 17.9436 91.5362 17.6123 91.4159C17.04 93.2352 16.4527 94.9493 15.9707 96.7084C13.9376 104.091 12.9286 111.624 12.9587 119.292C12.9587 119.683 13.1394 120.074 13.2448 120.465C13.2599 120.525 13.29 120.6 13.29 120.66C12.8081 123.532 13.3653 126.389 13.4707 129.245C13.6364 133.771 14.5551 138.191 15.4737 142.612C15.4888 142.702 15.4737 142.807 15.4737 142.913C15.3834 142.913 15.293 142.943 15.2478 142.928C11.3171 140.928 7.40146 138.913 3.45568 136.928C2.04002 136.207 1.42255 135.154 1.19665 133.515C0.217731 126.539 -0.188895 119.562 0.0821889 112.526C0.398454 104.482 1.90448 96.6633 4.29905 88.9952C6.2117 82.9058 8.5611 76.9969 11.6786 71.4337C17.9436 60.2774 25.7599 50.3539 35.534 42.0393C43.1695 35.544 51.7087 30.462 60.9255 26.5377C74.3291 20.8242 88.3201 18.1328 102.898 18.5087C113.666 18.7944 124.148 20.7189 134.269 24.4327C136.663 25.3198 139.013 26.3272 141.392 27.2895C141.799 27.4549 142.175 27.6954 142.582 27.9059C140.398 31.8753 138.26 35.7695 136.061 39.7689C128.185 35.9349 119.766 33.6645 110.941 32.8075C111.121 32.8977 111.287 33.003 111.468 33.0932C118.712 36.5814 125.142 41.1672 130.564 47.1213C131.407 48.0535 131.392 48.0685 132.552 47.4671C133.064 47.1965 133.561 46.9258 134.194 46.6101C134.691 47.6626 135.203 48.7301 135.684 49.8277C136.332 51.2861 136.965 52.7747 137.612 54.2331C137.808 54.6691 137.823 54.9999 137.462 55.3758C135.504 57.4657 133.576 59.5707 131.633 61.6607C131.588 61.7058 131.513 61.7358 131.422 61.796C130.925 61.2697 130.459 60.6984 129.931 60.2172C129.721 60.0368 129.284 59.9015 129.058 59.9917C124.66 61.8862 120.082 63.2243 115.383 64.0964C111.362 64.8482 107.311 65.3594 103.26 65.9157C102.612 66.0059 102.432 66.2164 102.432 66.8479C102.462 72.5614 102.447 78.2749 102.447 83.9884C102.447 84.5597 102.627 84.6951 103.169 84.4996C111.453 81.6429 119.209 77.7637 126.392 72.7569C131.724 69.0281 136.453 64.6527 140.715 59.7511C144.811 55.03 148.154 49.8127 151.151 44.3548C151.663 43.4226 152.191 42.4904 152.808 41.4078C152.808 41.9341 152.808 42.2799 152.808 42.6407C152.703 51.0907 151.468 59.4053 149.736 67.6598C147.386 78.9064 143.832 89.762 138.983 100.197C136.498 105.519 133.681 110.661 130.534 115.608C123.953 125.922 116.166 135.199 106.633 142.943C97.4616 150.4 87.2508 155.933 75.9406 159.437C63.8472 163.165 51.5129 164.233 38.9376 162.85C34.7659 162.384 30.6545 161.632 26.6033 160.519C26.5581 160.504 26.5129 160.534 26.3171 160.594C26.9948 161.512 27.6123 162.414 28.3051 163.256C29.7659 165.045 31.2267 166.819 32.7478 168.563C33.049 168.909 33.546 169.21 33.9978 169.3C42.6424 171.239 51.3773 171.991 60.2327 171.194C66.2267 170.653 72.1153 169.601 77.8984 167.947C84.4044 166.082 90.6394 163.556 96.6333 160.384C102.206 157.437 107.371 153.919 112.251 149.979C118.907 144.597 124.766 138.432 130.022 131.666C135.91 124.088 141.031 116.014 145.338 107.429C148.019 102.091 150.248 96.5731 152.251 90.9498C155.579 81.6278 157.944 72.0652 159.389 62.2771C160.459 54.9548 160.835 47.5724 160.639 40.1749C160.624 39.6487 160.519 39.1224 160.564 38.5962C160.609 38.0248 160.353 37.9045 159.871 37.9196C157.507 37.9346 155.157 37.9346 152.793 37.9496C151.091 37.9496 149.389 37.9496 147.416 37.9496C154.811 25.1394 162.447 12.69 169.931 0C177.326 12.6749 184.66 25.2597 192.055 37.9346C187.19 37.9346 182.477 37.9346 177.657 37.9346C177.687 38.2654 177.687 38.5811 177.718 38.8969C178.486 47.2115 179.209 55.5111 179.434 63.8709C179.54 67.8553 179.736 71.8247 179.856 75.8091C179.871 76.1398 179.6 76.4857 179.495 76.8315C179.419 77.042 179.359 77.2525 179.329 77.463C178.666 85.086 177.447 92.6188 175.489 100.031C173.727 106.707 171.513 113.217 168.862 119.592C165.534 127.621 161.483 135.275 156.769 142.582C151.724 150.4 145.956 157.647 139.374 164.233C129.736 173.886 118.651 181.373 105.956 186.425C97.8381 189.658 89.4195 191.643 80.6695 192.199C74.3592 192.605 68.0791 192.455 61.8141 191.598C61.0309 191.492 60.2478 191.312 59.4195 191.267C60.3834 191.763 61.3321 192.274 62.296 192.755C68.787 196.018 75.5791 198.424 82.6574 200.017C89.3291 201.521 96.0761 202.153 102.913 202.032C112.341 201.867 121.528 200.228 130.428 197.086C136.046 195.101 141.392 192.5 146.422 189.297C151.422 186.11 156.136 182.546 160.428 178.457C164.766 174.337 168.606 169.781 172.025 164.864C176.678 158.159 180.353 150.942 183.275 143.334C184.615 139.83 185.745 136.252 186.814 132.643C186.166 133.741 185.579 134.884 184.871 135.951C182.19 139.981 179.615 144.085 176.739 147.949C171.437 155.091 165.519 161.692 158.998 167.736C151.934 174.292 144.269 180.035 135.925 184.907C131.347 187.583 126.603 189.929 121.663 191.838C116.739 193.733 111.678 195.221 106.483 196.168C103.847 196.65 101.182 196.995 98.5309 197.386C98.1996 197.431 97.8683 197.386 97.5369 197.386C97.5369 197.326 97.5219 197.266 97.5219 197.191C97.6725 197.131 97.808 197.04 97.9586 196.995C102.703 195.913 107.236 194.214 111.694 192.349C117.537 189.914 123.139 186.982 128.425 183.493C134.826 179.268 140.745 174.442 146.151 168.999C149.736 165.391 153.109 161.572 156.332 157.647C159.826 153.392 162.989 148.927 165.971 144.311C170.7 137.004 174.615 129.29 177.793 121.201C180.971 113.112 182.989 104.722 183.817 96.0619C184.947 84.2741 184.645 72.4862 183.456 60.7134C183.32 59.3753 183.034 58.0521 182.943 56.5786C183.004 56.6989 183.049 56.8342 183.109 56.9545C187.145 64.758 191.212 72.5764 194.163 80.876C199.284 95.265 201.468 110.06 200.142 125.306C198.998 138.402 195.504 150.851 189.389 162.534C186.799 167.496 183.892 172.262 180.504 176.727C173.41 186.095 164.992 194.033 155.082 200.363C148.441 204.618 141.362 207.971 133.907 210.527C121.935 214.617 109.615 216.271 96.9948 215.865C88.4556 215.594 80.0671 214.241 71.8592 211.82C64.5852 209.685 57.6424 206.768 51.0008 203.13C40.549 197.416 31.6033 189.914 23.8774 180.892C16.6334 172.442 10.9105 163.075 6.78399 152.746C5.39845 149.273 4.23881 145.694 2.98881 142.161C3.10929 142.116 3.1846 142.071 3.2599 142.041ZM93.1544 76.8616C93.1544 73.5237 93.1393 70.2008 93.1544 66.8629C93.1544 66.3217 93.0038 66.0961 92.4466 66.0811C91.4677 66.036 90.5038 65.9007 89.5249 65.8255C82.0098 65.2241 74.6755 63.7656 67.4767 61.5404C67.0249 61.405 66.7839 61.4351 66.4827 61.826C63.6062 65.4797 61.0912 69.3588 58.802 73.4034C55.8954 78.5305 53.3352 83.823 51.3171 89.3711C50.9406 90.4086 50.9707 90.4386 52.055 90.5439C61.3623 91.4159 70.6544 91.4159 79.9014 89.9876C84.058 89.341 88.1845 88.4539 92.3261 87.7022C93.064 87.5669 93.1544 87.191 93.1544 86.5595C93.1393 83.3268 93.1544 80.0942 93.1544 76.8616ZM41.2569 88.6193C41.4075 88.469 41.6183 88.3186 41.7388 88.1232C41.8743 87.8976 41.9346 87.612 42.0249 87.3563C44.8713 79.4026 48.6514 71.8998 53.1996 64.773C54.54 62.668 56.0309 60.6382 57.4767 58.5934C57.8683 58.0521 57.8834 57.7965 57.1755 57.4507C53.6514 55.7667 50.1575 54.0226 46.6635 52.2635C45.1575 51.5117 45.5942 51.4064 44.3141 52.5491C39.5249 56.8643 35.1123 61.5554 31.2267 66.7126C27.8834 71.133 24.9466 75.8241 22.3412 80.7107C21.5882 82.109 21.5882 82.124 23.1093 82.7705C27.6424 84.6951 32.3111 86.2287 37.0551 87.5067C38.4105 87.8826 39.7659 88.2284 41.2569 88.6193ZM122.07 52.4589C122.085 52.3537 122.1 52.2484 122.13 52.1281C116.498 46.6402 110.112 42.325 102.552 39.6787C102.507 39.9945 102.462 40.1749 102.462 40.3403C102.462 45.4524 102.477 50.5494 102.462 55.6615C102.462 56.293 102.748 56.3531 103.275 56.2629C107.371 55.5863 111.498 54.9999 115.579 54.2181C117.763 53.8121 119.901 53.0603 122.07 52.4589ZM93.1544 39.7088C88.1695 41.4078 74.5249 51.1659 73.9074 53.4362C74.0129 53.4813 74.1333 53.5415 74.2388 53.5715C80.1424 54.9247 86.0912 55.9021 92.1303 56.323C93.1243 56.3982 93.1394 56.3832 93.1394 55.3908C93.1394 50.9554 93.1394 46.5349 93.1394 42.0994C93.1544 41.3176 93.1544 40.5508 93.1544 39.7088ZM85.1725 33.1984C85.1273 33.1232 85.0972 33.0481 85.052 32.9729C74.3291 35.1831 64.1785 38.8067 54.7508 44.8209C55.4135 45.2118 55.8653 45.5125 56.3472 45.7531C58.6213 46.9108 60.9105 48.0535 63.1846 49.1962C64.5249 49.8578 64.555 49.8728 65.5791 48.7602C70.9255 42.9865 76.9345 38.0399 83.7267 34.0554C84.2237 33.7848 84.6906 33.4841 85.1725 33.1984Z" fill="#D9D9D9"/>
</mask>
<g mask="url(#mask0_85_380)">
<path d="M66.5 167.5H31.5H14C33.2 199.9 65.3333 211.667 79 213.5L113 192L131.5 179.5L145 168L158 153L166 142L171.5 132L176 120.5L180.5 103.5L182 76L180.5 47.5L182 40.5H196L193 32.5L178.5 1L168 -4L164.5 1L142.5 38L145 40.5H158V45.5L153.5 76L145 99L127.5 128.5L106 152L66.5 167.5Z" fill="#CC312B"/>
<path d="M61 192C42.6 180.4 30 166.167 26 160.5L11 164L16.5 174L23 185L48 208L78 214.5C78.8333 213.833 83.8 210.4 97 202C83 202 67.1667 195.333 61 192Z" fill="#1D1C44"/>
<path d="M98.5 202L85.5 210.5L82.5 211L83 209.5L92 203H88L79.5 200.5L77 197L95 201L98.5 202Z" fill="#1D1C44"/>
<path d="M80.5 192.5C56.1 195.7 34.3333 172.833 26.5 161V173.5L59.5 201.5L75 205.5C76.8333 205 80.5 201.7 80.5 192.5Z" fill="#1D1C44"/>
</g>
<path d="M100 199L96 197.5L114 189V192L106 196.5L100 199Z" fill="#1D1C44"/>
<path d="M266.98 30.9297V44.958H253.865V31.8843C253.865 29.2695 252.578 27.9829 250.046 27.9414C247.681 27.9414 246.311 29.4355 246.311 31.4277V44.0449C246.311 46.7427 247.266 47.9878 249.88 49.1084L256.355 51.2666C260.215 52.5532 263.079 54.2964 264.946 56.4546C266.814 58.6543 267.727 61.8916 267.727 66.208V82.6021C267.727 87.5825 266.191 91.5254 263.162 94.3892C260.09 97.2944 255.857 98.7471 250.503 98.7471C239.504 98.7471 233.32 93.4761 233.32 84.3867V67.7437H246.477V83.5566C246.477 85.9224 247.888 87.707 250.42 87.707C252.786 87.707 254.238 86.0884 254.238 83.8057V68.4077C254.238 65.793 252.827 63.9253 250.046 62.7217L244.111 60.854C240.21 59.6504 237.388 57.9072 235.645 55.583C233.86 53.2588 232.988 49.9385 232.988 45.6221V32.1333C232.988 27.6509 234.482 23.9985 237.429 21.1763C240.376 18.3955 244.609 16.9844 250.212 16.9844C255.608 16.9844 259.758 18.2295 262.664 20.7197C265.527 23.21 266.98 26.6133 266.98 30.9297ZM309.106 98H295.244L293.916 80.8174L284.536 80.7344L283.208 98H269.512L279.016 17.6899H299.768L309.106 98ZM287.69 41.8867L285.491 69.8604H293.044L290.928 41.8867L289.724 30.0166H288.811L287.69 41.8867ZM332.349 17.6899H345.588V83.7227C345.588 93.5591 339.487 98.7471 328.613 98.7471C317.739 98.7471 311.846 93.6421 311.846 83.8887V17.6899H325.085V83.3076C325.085 86.1714 326.289 87.624 328.655 87.624C331.104 87.624 332.307 86.1714 332.349 83.3076V17.6899ZM352.852 17.6899H370.698C380.867 17.6899 386.926 23.4175 386.926 34.665V81.1494C386.926 86.6694 385.474 90.8198 382.61 93.6836C379.705 96.5474 375.72 98 370.698 98H352.852V17.6899ZM373.521 82.021V33.6689C373.521 30.7222 371.985 28.979 369.619 28.979H366.133V86.7109H369.495C371.985 86.7109 373.521 84.9678 373.521 82.021ZM393.691 98V17.6899H406.973V98H393.691ZM460.969 30.9297V44.958H447.854V31.8843C447.854 29.2695 446.567 27.9829 444.036 27.9414C441.67 27.9414 440.3 29.4355 440.3 31.4277V44.0449C440.3 46.7427 441.255 47.9878 443.87 49.1084L450.344 51.2666C454.204 52.5532 457.068 54.2964 458.936 56.4546C460.803 58.6543 461.716 61.8916 461.716 66.208V82.6021C461.716 87.5825 460.181 91.5254 457.151 94.3892C454.08 97.2944 449.846 98.7471 444.492 98.7471C433.494 98.7471 427.31 93.4761 427.31 84.3867V67.7437H440.466V83.5566C440.466 85.9224 441.877 87.707 444.409 87.707C446.775 87.707 448.228 86.0884 448.228 83.8057V68.4077C448.228 65.793 446.816 63.9253 444.036 62.7217L438.101 60.854C434.199 59.6504 431.377 57.9072 429.634 55.583C427.849 53.2588 426.978 49.9385 426.978 45.6221V32.1333C426.978 27.6509 428.472 23.9985 431.418 21.1763C434.365 18.3955 438.599 16.9844 444.202 16.9844C449.597 16.9844 453.748 18.2295 456.653 20.7197C459.517 23.21 460.969 26.6133 460.969 30.9297ZM486.079 73.8447H481.182V98H467.9V17.6899H485.996C491.101 17.6899 495.085 19.1011 497.991 21.9648C500.896 24.8286 502.349 28.896 502.349 34.167V56.7036C502.349 61.8916 500.854 66.042 497.825 69.1548C494.795 72.2676 490.894 73.8447 486.079 73.8447ZM481.182 62.5557H484.128C487.2 62.5557 488.735 60.6465 488.735 56.8696V34.499C488.735 30.8052 487.2 28.979 484.128 28.979H481.182V62.5557ZM520.942 62.2236V86.7109H535.054V98H507.661V17.6899H534.846V28.979H520.942V51.2666H533.85V62.2236H520.942ZM561.367 60.605H574.441V82.6021C574.441 93.2686 568.506 98.7471 557.507 98.7471C546.26 98.7471 540.2 92.4385 540.2 80.3193V35.3706C540.2 23.376 546.343 16.9844 557.507 16.9844C568.796 16.9844 574.441 22.3799 574.441 33.1294V52.6777H561.367V32.7144C561.367 29.8921 559.832 28.0244 557.632 28.0244C555.266 28.0244 553.689 29.8921 553.689 32.7144V82.9756C553.689 85.7979 555.266 87.624 557.632 87.624C559.915 87.624 561.367 85.7979 561.367 82.9756V60.605ZM580.874 98V17.6899H594.155V98H580.874ZM637.236 98H623.374L622.046 80.8174L612.666 80.7344L611.338 98H597.642L607.146 17.6899H627.898L637.236 98ZM615.82 41.8867L613.621 69.8604H621.174L619.058 41.8867L617.854 30.0166H616.941L615.82 41.8867ZM654.004 17.6899V86.7109H666.746V98H640.723V17.6899H654.004ZM670.19 98V17.6899H683.472V98H670.19ZM719.331 28.2319L703.892 86.7109H720.369V98H688.743V87.541L704.473 28.979H688.992V17.6899H719.414L719.331 28.2319ZM738.921 62.2236V86.7109H753.032V98H725.64V17.6899H752.825V28.979H738.921V51.2666H751.829V62.2236H738.921ZM230.229 110.304H260.888V120.663H251.595V184H239.521V120.663H230.229V110.304ZM285.872 184C285.872 184 283.663 181.943 283.663 174.098V157.302C283.663 153.912 282.559 152.922 279.626 152.922H276.617V184H264.43V110.304H281.035C291.242 110.304 295.774 115.902 295.774 125.424V136.431C295.774 141.077 294.061 143.972 291.395 145.762C294.518 147.476 296.041 150.751 296.041 156.997V174.098C296.041 181.943 298.25 184 298.25 184H285.872ZM276.693 143.172H279.017C281.835 143.172 283.396 141.42 283.396 137.954V125.729C283.396 122.339 281.835 120.663 279.017 120.663H276.693V143.172ZM333.746 184H321.025L319.807 168.232L311.199 168.156L309.98 184H297.412L306.134 110.304H325.177L333.746 184ZM314.094 132.508L312.075 158.178H319.007L317.064 132.508L315.96 121.615H315.122L314.094 132.508ZM336.945 110.304H353.322C362.653 110.304 368.214 115.56 368.214 125.881V168.537C368.214 173.603 366.881 177.411 364.253 180.039C361.587 182.667 357.931 184 353.322 184H336.945V110.304ZM355.912 169.337V124.967C355.912 122.263 354.503 120.663 352.332 120.663H349.133V173.641H352.218C354.503 173.641 355.912 172.041 355.912 169.337ZM374.422 184V110.304H386.609V184H374.422ZM413.688 150.294H414.298L413.536 130.489V110.304H425V184H413.193L404.624 140.849H403.938L404.7 160.196V184H393.236V110.304H405.729L413.688 150.294ZM451.736 178.401H451.051C449.565 182.857 446.899 184.686 441.986 184.686C438.711 184.647 436.083 183.391 434.103 180.991C432.084 178.592 431.094 175.088 431.094 170.518V126.528C431.094 115.293 436.464 109.694 447.242 109.656C457.335 109.656 462.591 114.684 462.591 123.71V139.782H450.441V124.091C450.441 121.234 449.261 119.787 446.899 119.787C444.805 119.787 443.396 121.501 443.396 124.091V170.365C443.396 173.222 444.576 174.669 446.976 174.631C449.07 174.631 450.594 172.917 450.594 170.518V153.417H446.976V144.391H462.591V184H452.917L451.736 178.401ZM499.801 149.685H511.798V169.87C511.798 179.658 506.352 184.686 496.259 184.686C485.938 184.686 480.377 178.896 480.377 167.775V126.528C480.377 115.521 486.014 109.656 496.259 109.656C506.618 109.656 511.798 114.607 511.798 124.472V142.41H499.801V124.091C499.801 121.501 498.392 119.787 496.373 119.787C494.202 119.787 492.755 121.501 492.755 124.091V170.213C492.755 172.803 494.202 174.479 496.373 174.479C498.468 174.479 499.801 172.803 499.801 170.213V149.685ZM532.974 109.656C543.485 109.656 549.046 115.521 549.046 126.528V167.775C549.046 178.896 543.485 184.686 532.974 184.686C522.652 184.686 517.092 178.896 517.092 167.775V126.528C517.092 115.521 522.652 109.656 532.974 109.656ZM536.668 170.213V124.091C536.668 121.501 535.259 119.787 533.088 119.787C530.917 119.787 529.47 121.501 529.47 124.091V170.213C529.47 172.803 530.917 174.479 533.088 174.479C535.259 174.479 536.668 172.803 536.668 170.213ZM577.572 160.844H578.334L579.438 145.762L583.247 110.304H600.652V184H589.188L589.265 158.025L589.798 132.508H589.036L583.666 184H571.859L566.718 132.432H565.956L566.565 158.025V184H555.178V110.304H572.659L576.392 145.762L577.572 160.844ZM623.961 161.834H619.467V184H607.279V110.304H623.885C628.569 110.304 632.226 111.599 634.892 114.227C637.558 116.854 638.891 120.587 638.891 125.424V146.104C638.891 150.865 637.52 154.674 634.739 157.53C631.959 160.387 628.379 161.834 623.961 161.834ZM619.467 151.475H622.171C624.989 151.475 626.398 149.723 626.398 146.257V125.729C626.398 122.339 624.989 120.663 622.171 120.663H619.467V151.475ZM676.672 184H663.951L662.732 168.232L654.125 168.156L652.906 184H640.338L649.06 110.304H668.103L676.672 184ZM657.02 132.508L655.001 158.178H661.933L659.99 132.508L658.886 121.615H658.048L657.02 132.508ZM700.323 150.294H700.933L700.171 130.489V110.304H711.635V184H699.828L691.259 140.849H690.573L691.335 160.196V184H679.871V110.304H692.363L700.323 150.294ZM732.849 142.981H733.725L734.981 133.536L738.257 110.304H751.435L739.171 164.271V184H727.021V164.195L714.682 110.304H728.164L731.592 133.536L732.849 142.981Z" fill="#1D1C44"/>
<path d="M249.356 218.772L246.437 215.853C245.723 216.049 244.995 216.147 244.253 216.147C242.895 216.147 241.656 215.832 240.536 215.202C239.416 214.558 238.527 213.669 237.869 212.535C237.225 211.387 236.903 210.099 236.903 208.671C236.903 207.243 237.225 205.962 237.869 204.828C238.527 203.68 239.416 202.791 240.536 202.161C241.656 201.517 242.895 201.195 244.253 201.195C245.625 201.195 246.871 201.517 247.991 202.161C249.111 202.791 249.993 203.673 250.637 204.807C251.281 205.941 251.603 207.229 251.603 208.671C251.603 210.071 251.295 211.331 250.679 212.451C250.063 213.571 249.216 214.453 248.138 215.097L251.834 218.772H249.356ZM238.856 208.671C238.856 209.833 239.087 210.855 239.549 211.737C240.025 212.619 240.669 213.298 241.481 213.774C242.307 214.25 243.231 214.488 244.253 214.488C245.275 214.488 246.192 214.25 247.004 213.774C247.83 213.298 248.474 212.619 248.936 211.737C249.412 210.855 249.65 209.833 249.65 208.671C249.65 207.495 249.412 206.473 248.936 205.605C248.474 204.723 247.837 204.044 247.025 203.568C246.213 203.092 245.289 202.854 244.253 202.854C243.217 202.854 242.293 203.092 241.481 203.568C240.669 204.044 240.025 204.723 239.549 205.605C239.087 206.473 238.856 207.495 238.856 208.671ZM262.546 201.363V210.624C262.546 211.926 262.861 212.892 263.491 213.522C264.135 214.152 265.024 214.467 266.158 214.467C267.278 214.467 268.153 214.152 268.783 213.522C269.427 212.892 269.749 211.926 269.749 210.624V201.363H271.66V210.603C271.66 211.821 271.415 212.85 270.925 213.69C270.435 214.516 269.77 215.132 268.93 215.538C268.104 215.944 267.173 216.147 266.137 216.147C265.101 216.147 264.163 215.944 263.323 215.538C262.497 215.132 261.839 214.516 261.349 213.69C260.873 212.85 260.635 211.821 260.635 210.603V201.363H262.546ZM290.01 212.745H283.626L282.45 216H280.434L285.726 201.447H287.931L293.202 216H291.186L290.01 212.745ZM289.464 211.191L286.818 203.799L284.172 211.191H289.464ZM303.929 214.446H309.053V216H302.018V201.363H303.929V214.446ZM319.504 201.363V216H317.593V201.363H319.504ZM338.28 201.363V202.917H334.29V216H332.379V202.917H328.368V201.363H338.28ZM357.39 201.363L352.623 210.477V216H350.712V210.477L345.924 201.363H348.045L351.657 208.776L355.269 201.363H357.39ZM366.525 216.126C366.161 216.126 365.853 216 365.601 215.748C365.349 215.496 365.223 215.188 365.223 214.824C365.223 214.46 365.349 214.152 365.601 213.9C365.853 213.648 366.161 213.522 366.525 213.522C366.875 213.522 367.169 213.648 367.407 213.9C367.659 214.152 367.785 214.46 367.785 214.824C367.785 215.188 367.659 215.496 367.407 215.748C367.169 216 366.875 216.126 366.525 216.126ZM390.854 202.917V207.81H396.188V209.385H390.854V214.425H396.818V216H388.943V201.342H396.818V202.917H390.854ZM412.205 208.692L416.699 216H414.536L411.029 210.288L407.69 216H405.569L410.042 208.692L405.548 201.363H407.69L411.218 207.096L414.578 201.363H416.72L412.205 208.692ZM435.559 205.647C435.559 206.865 435.139 207.88 434.299 208.692C433.473 209.49 432.206 209.889 430.498 209.889H427.684V216H425.773V201.363H430.498C432.15 201.363 433.403 201.762 434.257 202.56C435.125 203.358 435.559 204.387 435.559 205.647ZM430.498 208.314C431.562 208.314 432.346 208.083 432.85 207.621C433.354 207.159 433.606 206.501 433.606 205.647C433.606 203.841 432.57 202.938 430.498 202.938H427.684V208.314H430.498ZM446.355 202.917V207.81H451.689V209.385H446.355V214.425H452.319V216H444.444V201.342H452.319V202.917H446.355ZM469.428 216L465.942 210.015H463.632V216H461.721V201.363H466.446C467.552 201.363 468.483 201.552 469.239 201.93C470.009 202.308 470.583 202.819 470.961 203.463C471.339 204.107 471.528 204.842 471.528 205.668C471.528 206.676 471.234 207.565 470.646 208.335C470.072 209.105 469.204 209.616 468.042 209.868L471.717 216H469.428ZM463.632 208.482H466.446C467.482 208.482 468.259 208.23 468.777 207.726C469.295 207.208 469.554 206.522 469.554 205.668C469.554 204.8 469.295 204.128 468.777 203.652C468.273 203.176 467.496 202.938 466.446 202.938H463.632V208.482ZM490.016 201.363V202.917H486.026V216H484.115V202.917H480.104V201.363H490.016ZM500.789 201.363V216H498.878V201.363H500.789ZM515.197 216.147C514.231 216.147 513.363 215.979 512.593 215.643C511.837 215.293 511.242 214.817 510.808 214.215C510.374 213.599 510.15 212.892 510.136 212.094H512.173C512.243 212.78 512.523 213.361 513.013 213.837C513.517 214.299 514.245 214.53 515.197 214.53C516.107 214.53 516.821 214.306 517.339 213.858C517.871 213.396 518.137 212.808 518.137 212.094C518.137 211.534 517.983 211.079 517.675 210.729C517.367 210.379 516.982 210.113 516.52 209.931C516.058 209.749 515.435 209.553 514.651 209.343C513.685 209.091 512.908 208.839 512.32 208.587C511.746 208.335 511.249 207.943 510.829 207.411C510.423 206.865 510.22 206.137 510.22 205.227C510.22 204.429 510.423 203.722 510.829 203.106C511.235 202.49 511.802 202.014 512.53 201.678C513.272 201.342 514.119 201.174 515.071 201.174C516.443 201.174 517.563 201.517 518.431 202.203C519.313 202.889 519.81 203.799 519.922 204.933H517.822C517.752 204.373 517.458 203.883 516.94 203.463C516.422 203.029 515.736 202.812 514.882 202.812C514.084 202.812 513.433 203.022 512.929 203.442C512.425 203.848 512.173 204.422 512.173 205.164C512.173 205.696 512.32 206.13 512.614 206.466C512.922 206.802 513.293 207.061 513.727 207.243C514.175 207.411 514.798 207.607 515.596 207.831C516.562 208.097 517.339 208.363 517.927 208.629C518.515 208.881 519.019 209.28 519.439 209.826C519.859 210.358 520.069 211.086 520.069 212.01C520.069 212.724 519.88 213.396 519.502 214.026C519.124 214.656 518.564 215.167 517.822 215.559C517.08 215.951 516.205 216.147 515.197 216.147ZM531.303 202.917V207.81H536.637V209.385H531.303V214.425H537.267V216H529.392V201.342H537.267V202.917H531.303ZM547.277 216.126C546.913 216.126 546.605 216 546.353 215.748C546.101 215.496 545.975 215.188 545.975 214.824C545.975 214.46 546.101 214.152 546.353 213.9C546.605 213.648 546.913 213.522 547.277 213.522C547.627 213.522 547.921 213.648 548.159 213.9C548.411 214.152 548.537 214.46 548.537 214.824C548.537 215.188 548.411 215.496 548.159 215.748C547.921 216 547.627 216.126 547.277 216.126ZM577.403 216L573.917 210.015H571.607V216H569.696V201.363H574.421C575.527 201.363 576.458 201.552 577.214 201.93C577.984 202.308 578.558 202.819 578.936 203.463C579.314 204.107 579.503 204.842 579.503 205.668C579.503 206.676 579.209 207.565 578.621 208.335C578.047 209.105 577.179 209.616 576.017 209.868L579.692 216H577.403ZM571.607 208.482H574.421C575.457 208.482 576.234 208.23 576.752 207.726C577.27 207.208 577.529 206.522 577.529 205.668C577.529 204.8 577.27 204.128 576.752 203.652C576.248 203.176 575.471 202.938 574.421 202.938H571.607V208.482ZM590.893 202.917V207.81H596.227V209.385H590.893V214.425H596.857V216H588.982V201.342H596.857V202.917H590.893ZM608.17 214.446H613.294V216H606.259V201.363H608.17V214.446ZM623.744 201.363V216H621.833V201.363H623.744ZM642.163 212.745H635.779L634.603 216H632.587L637.879 201.447H640.084L645.355 216H643.339L642.163 212.745ZM641.617 211.191L638.971 203.799L636.325 211.191H641.617ZM661.501 208.461C662.033 208.545 662.516 208.762 662.95 209.112C663.398 209.462 663.748 209.896 664 210.414C664.266 210.932 664.399 211.485 664.399 212.073C664.399 212.815 664.21 213.487 663.832 214.089C663.454 214.677 662.901 215.146 662.173 215.496C661.459 215.832 660.612 216 659.632 216H654.172V201.363H659.422C660.416 201.363 661.263 201.531 661.963 201.867C662.663 202.189 663.188 202.63 663.538 203.19C663.888 203.75 664.063 204.38 664.063 205.08C664.063 205.948 663.825 206.669 663.349 207.243C662.887 207.803 662.271 208.209 661.501 208.461ZM656.083 207.684H659.296C660.192 207.684 660.885 207.474 661.375 207.054C661.865 206.634 662.11 206.053 662.11 205.311C662.11 204.569 661.865 203.988 661.375 203.568C660.885 203.148 660.178 202.938 659.254 202.938H656.083V207.684ZM659.464 214.425C660.416 214.425 661.158 214.201 661.69 213.753C662.222 213.305 662.488 212.682 662.488 211.884C662.488 211.072 662.208 210.435 661.648 209.973C661.088 209.497 660.339 209.259 659.401 209.259H656.083V214.425H659.464ZM675.472 201.363V216H673.561V201.363H675.472ZM687.15 214.446H692.274V216H685.239V201.363H687.15V214.446ZM702.724 201.363V216H700.813V201.363H702.724ZM721.5 201.363V202.917H717.51V216H715.599V202.917H711.588V201.363H721.5ZM740.61 201.363L735.843 210.477V216H733.932V210.477L729.144 201.363H731.265L734.877 208.776L738.489 201.363H740.61Z" fill="#6D6D6D"/>
</svg>
